<svg width="94" height="145" viewBox="0 0 94 145" fill="none" xmlns="http://www.w3.org/2000/svg">
<mask id="mask0_68_28" style="mask-type:luminance" maskUnits="userSpaceOnUse" x="0" y="0" width="94" height="94">
<path d="M0 0H94V93.715H0V0Z" fill="white"/>
</mask>
<g mask="url(#mask0_68_28)">
<path d="M73.8658 74.9213L77.4279 72.1916C82.9125 68.0062 88.3307 63.72 93.7489 59.451C89.1764 52.3544 84.5348 45.2721 80.0287 38.1409C81.1718 34.5839 82.2168 30.9751 83.3426 27.4181C82.1735 18.298 81.0304 9.16916 79.9133 0.0374756C79.5322 0.268073 79.2494 0.64856 78.9203 0.945455C72.0097 7.67892 65.0674 14.3807 58.1568 21.0997H58.024L49.7567 15.4558C48.8128 14.8275 47.9006 14.1155 46.9394 13.5707L35.823 21.1314C34.6453 19.941 33.3867 18.8168 32.1772 17.6235C26.0806 11.8009 20.0649 5.87737 13.9828 0.0374756C13.2063 7.15142 12.2768 14.2337 11.4657 21.3476C11.2319 23.3653 10.9172 25.3687 10.7354 27.4037C10.9172 28.231 11.1828 29.0409 11.4166 29.8509C12.2104 32.4336 12.8743 35.048 13.6508 37.6278C13.7028 37.8757 13.8356 38.1409 13.6508 38.3715C9.9906 43.9808 6.42851 49.6881 2.73363 55.2974C1.82146 56.704 0.894854 58.079 0 59.5C0.430107 59.8488 0.860214 60.1947 1.30764 60.5262C7.50522 65.4091 13.6682 70.3064 20.0158 74.9876C18.2348 75.3738 16.4768 75.8466 14.7449 76.4115L26.2279 82.3494C26.4097 82.9144 26.2769 83.5572 26.3433 84.1538C26.5281 85.8747 26.4444 87.6128 26.6435 89.3164C29.1116 90.723 31.5306 92.2104 34.016 93.5853C34.5471 93.3547 35.0927 93.1212 35.6411 92.9396C39.3851 91.4004 43.1637 89.9274 46.9394 88.4545C50.7526 89.9937 54.5774 91.533 58.405 93.0376C58.9044 93.1875 59.3519 93.47 59.8484 93.5853C60.1284 93.4354 60.3939 93.2365 60.6941 93.0722C62.8793 91.7809 65.0991 90.5414 67.2381 89.2011C67.3363 87.7108 67.4027 86.2235 67.469 84.7332C67.5354 83.9233 67.5037 83.1104 67.6365 82.3177C69.2414 81.5077 70.832 80.6632 72.4398 79.8359C74.6596 78.7261 76.8477 77.5184 79.1021 76.4605L79.1685 76.3452C77.6588 76.0137 76.1866 75.5007 74.6769 75.1375L73.8658 74.9213ZM78.4555 14.4643C78.5104 14.7381 78.5508 15.0119 78.571 15.2915C78.7211 19.7594 79.2176 24.2272 79.4485 28.6922C78.8856 30.9751 78.2564 33.2436 77.6271 35.5092C76.3512 34.483 75.0262 33.4915 73.7157 32.5143C74.8444 30.8944 76.1029 29.3378 77.2287 27.7006C77.6097 23.9101 78.0254 20.1226 78.3401 16.3177C78.3545 15.6893 78.5219 15.0926 78.4555 14.4643ZM14.4475 28.3953C14.7795 23.7631 15.1779 19.131 15.4752 14.496C15.8504 18.8543 16.2257 23.2097 16.601 27.568C17.695 29.2715 19.02 30.8108 20.1313 32.4999C18.8381 33.4742 17.5305 34.4167 16.2546 35.4112C16.1045 35.2296 16.0872 34.9644 16.0063 34.7482C15.5243 32.8631 14.9787 30.9751 14.5139 29.0899C14.4389 28.8622 14.4158 28.6316 14.4475 28.3953ZM70.2546 76.4115L70.1709 76.5441C67.8847 77.6337 65.5812 78.7261 63.2603 79.7523C63.3758 82.3177 63.4278 84.8658 63.6269 87.4312C61.8863 88.5381 60.0475 89.4807 58.2896 90.5558C57.9259 90.8729 57.5448 90.4088 57.1956 90.2762L47.7188 85.3443C49.8895 84.0385 52.0112 82.6319 54.1473 81.2743C54.6293 78.5128 55.0768 75.7313 55.605 72.9843C54.1646 74.3419 52.805 75.8321 51.3155 77.1379C50.8825 77.3858 50.386 77.4867 49.9068 77.6337C48.9629 77.8989 48.0334 78.2477 47.0722 78.5128C46.8066 78.5936 46.5583 78.4783 46.3101 78.412L43.2936 77.4867C42.9789 77.3858 42.6325 77.3195 42.3843 77.0716C40.941 75.7831 39.6333 74.3592 38.2737 72.9843C38.7212 75.7486 39.1859 78.4956 39.6507 81.2425C41.7694 82.6492 43.9402 83.9895 46.0965 85.3443C42.6643 87.117 39.2523 88.8869 35.8057 90.5904C33.9178 89.5988 32.0762 88.4891 30.2547 87.4139C30.4192 84.8831 30.5029 82.3494 30.6704 79.8013C29.1116 79.0576 27.5384 78.314 25.9969 77.553C25.2002 77.1379 24.34 76.8583 23.5606 76.3942C27.5211 75.4834 31.4469 74.3765 35.4073 73.4483C31.5797 73.2004 27.7376 73.0851 23.9099 73.0016C21.2398 71.0501 18.6736 68.9661 16.0727 66.9455C12.6405 64.2331 9.14482 61.587 5.76459 58.8054C9.9906 52.6167 14.0983 46.33 18.3589 40.1759C19.9985 38.6713 21.7218 37.2473 23.3614 35.7427C25.1685 33.2436 26.9235 30.6955 28.6642 28.1474C28.797 27.3864 28.846 26.6254 28.9471 25.8644C29.077 25.3687 28.6324 25.0372 28.4159 24.6394L18.027 8.75696C17.5305 8.0104 16.9676 7.29843 16.5692 6.50575C17.0311 6.88624 17.3804 7.38202 17.796 7.81151C20.7433 11.2042 23.8753 14.4297 26.9899 17.658C29.6745 20.4367 32.3821 23.1953 35.11 25.9307C35.1764 26.7407 35.1591 27.5507 35.2601 28.378C35.3582 29.2052 35.1764 30.1334 35.5892 30.9261C38.141 37.0369 40.6812 43.1593 43.2127 49.2932C44.2895 51.8903 45.3662 54.5047 46.5266 57.0701C46.4804 56.704 46.3909 56.3524 46.261 56.0094C45.3488 52.9655 44.6878 49.8553 43.9257 46.7595C42.5661 40.9196 41.1402 35.097 39.7979 29.2542C39.8643 27.4354 39.8816 25.6166 39.9653 23.8121C42.2515 22.1893 44.555 20.552 46.9076 19.0301C49.2112 20.6356 51.5464 22.1749 53.8326 23.7804C53.8673 25.6483 53.9481 27.519 53.9654 29.3724C52.3085 36.3538 50.7006 43.3524 48.9947 50.3194C48.4808 52.5677 47.8689 54.8016 47.2887 57.0355C51.0326 48.1662 54.7448 39.2766 58.4224 30.364C58.5234 28.9083 58.5725 27.4354 58.7053 25.9797C63.0467 21.5897 67.3594 17.1651 71.646 12.7088C73.3173 10.9073 75.0262 9.13745 76.6312 7.24943C76.8968 6.96983 77.1133 6.63834 77.4596 6.43945C75.6382 9.25275 73.733 12.0142 71.9116 14.8275C69.6398 18.37 67.2699 21.8607 65.0327 25.4177C65.0183 26.3429 65.2002 27.2855 65.2983 28.1964C66.8744 30.5283 68.4967 32.8285 70.0699 35.1777C70.3759 35.6418 70.7454 36.0453 71.1812 36.3855C72.2406 37.3626 73.3347 38.3052 74.4114 39.2824C74.8588 39.6801 75.3582 40.026 75.6873 40.5391C79.564 46.2637 83.4205 51.9998 87.254 57.7475C87.5022 58.128 87.7678 58.5085 87.9814 58.9063C83.3253 62.6275 78.6056 66.2681 73.9149 69.9577C72.639 70.9492 71.3804 71.9437 70.0872 72.9036C69.8563 73.0851 69.5243 73.0361 69.2587 73.0679C65.7313 73.1169 62.201 73.333 58.6562 73.4829C62.5647 74.3765 66.3923 75.4517 70.2546 76.4115Z" fill="#540E68"/>
</g>
<path d="M39.9307 57.2344C39.235 57.0182 38.5884 56.6896 37.91 56.4244C31.5479 53.7437 25.2176 50.9967 18.8554 48.316C18.6072 48.218 18.3734 48.0509 18.1107 48.0509C22.2847 52.1555 26.5916 56.142 30.8176 60.1803C31.2333 60.5608 31.8279 60.5925 32.3417 60.7424C34.2325 61.2382 36.1376 61.636 37.9937 62.2298C35.9875 62.0482 33.9987 61.7023 32.0271 61.3881C31.5652 61.2728 31.0514 61.2872 30.6531 61.0076C28.8807 59.3675 27.0737 57.7302 25.2002 56.191C23.8089 55.0668 22.4493 53.859 20.9425 52.8675C23.7771 56.5052 26.7908 59.9987 29.7409 63.5384C29.891 63.6883 30.0065 63.9016 30.2056 64.0025C32.2927 63.9852 34.3797 63.9852 36.4523 63.9016C38.522 67.2107 40.4445 70.6033 42.4016 73.9787C41.9022 71.5949 41.6367 69.165 41.273 66.7466C40.7938 63.6047 40.4445 60.3936 39.9307 57.2344Z" fill="#540E68"/>
<path d="M70.5173 54.7526C68.0666 56.704 65.6794 58.7564 63.3758 60.875C62.963 61.3218 62.2991 61.2728 61.7362 61.4198C59.7473 61.7023 57.7758 62.0337 55.7869 62.2297C57.9923 61.5524 60.2612 61.0739 62.481 60.4599C63.2113 60.163 63.7078 59.5 64.3053 59.0216C68.133 55.3637 72.1079 51.824 75.8201 48.0509C68.4476 51.0285 61.156 54.2395 53.8009 57.2661C53.0273 62.838 52.219 68.4011 51.3819 73.9614C53.2524 70.586 55.2413 67.2943 57.1811 63.9679C59.3836 64.0025 61.589 64.0342 63.7915 64.0169C65.5466 61.9444 67.293 59.8604 69.0278 57.7648C70.3355 56.2083 71.545 54.571 72.8555 53.0318C72.0097 53.4613 71.314 54.1732 70.5173 54.7526Z" fill="#540E68"/>
<mask id="mask1_68_28" style="mask-type:luminance" maskUnits="userSpaceOnUse" x="35" y="92" width="24" height="13">
<path d="M35.0523 92.9771H58.6995V104.908H35.0523V92.9771Z" fill="white"/>
</mask>
<g mask="url(#mask1_68_28)">
<path d="M58.2232 93.3547C54.4966 95.6866 50.8161 98.0848 47.0549 100.336C46.8586 100.483 46.6421 100.235 46.4775 100.169C42.8981 97.9205 39.3014 95.6693 35.7566 93.3547L35.3756 93.568C35.6902 95.1908 36.0049 96.7935 36.2704 98.4163C38.8366 100.088 41.4548 101.676 44.0585 103.296C45.0025 103.876 45.9464 104.455 46.9076 105.003C50.106 103.149 53.2207 101.146 56.3671 99.1946C56.7655 98.8948 57.2966 98.7478 57.5939 98.35C57.643 97.788 57.7758 97.2403 57.8422 96.6782C58.024 95.652 58.1741 94.6115 58.3906 93.6026L58.2578 93.4037L58.2232 93.3547Z" fill="#540E68"/>
</g>
</svg>
